<svg id="Layer_1" data-name="Layer 1" xmlns="http://www.w3.org/2000/svg" viewBox="0 0 636 641.58">
  <defs>
    <style>
      .cls-1 {
        fill: #b273f4;
      }

      .cls-1, .cls-2, .cls-3, .cls-5, .cls-6, .cls-8 {
        stroke: #000;
        stroke-miterlimit: 10;
        stroke-width: 3px;
      }

      .cls-2, .cls-4 {
        fill: #ffa900;
      }

      .cls-3 {
        fill: #ff3;
      }

      .cls-5, .cls-7 {
        fill: #fff;
      }

      .cls-8, .cls-9 {
        fill: none;
      }
    </style>
  </defs>
  <title>dxster_mockup</title>
  <g>
    <g>
      <path d="M282.18,325.42a19.19,19.19,0,0,0,.55,2.11h3.14A13.91,13.91,0,0,1,285,325l-3-.28C282.09,325,282.13,325.18,282.18,325.42Z"/>
      <g>
        <path class="cls-1" d="M300.52,534.05l6.19,15.43-31.1,22.25-32.13-30.86c0.09,1.29.18,2.58,0.24,3.87,0.07,1.54.17,3.09,0.19,4.63,0.05,4.81.1,9.62,0.09,14.44a17.19,17.19,0,0,1-.58,5.83,8.06,8.06,0,0,0-.28,2.11,9.06,9.06,0,0,0,4.24,8.66,20.21,20.21,0,0,0,7.43,2.88,55.66,55.66,0,0,0,13.84.81,99,99,0,0,0,11-1.07,50.46,50.46,0,0,0,7-1.39c2.38-.74,4.8-1.37,7.2-2l17-4.77,17.67-5c1-.29,2-0.62,3-0.94a6.38,6.38,0,0,0-.06-0.82c-0.53-2.38-1.09-4.75-1.61-7.13-1-4.76-2.09-9.52-3-14.3s-1.83-9.57-2.63-14.38c-0.14-.84-0.27-1.68-0.41-2.52l-9,10.89Z"/>
        <path class="cls-1" d="M245.68,496.49l-0.81,24,29.9,1.71-14-6.44-10.36-31.6-4.45.2Z"/>
        <path class="cls-1" d="M132.91,484.11c-4.58-3.62-9.18-79.93-12.25-143.8l-1.86.41c-3.19.69-6.38,1.42-9.57,2.13l-9.05,2-9,2-9.05,2-9.22,2.06-9.05,2c-0.63.14-1.24,0.35-1.94,0.55,0.12,0.48.19,0.88,0.31,1.26,1.14,3.75,2.33,7.49,3.43,11.26,1.25,4.28,2.46,8.57,3.61,12.87,0.89,3.33,1.68,6.69,2.47,10,0.65,2.78,1.22,5.57,1.86,8.35,1.1,4.81,1.88,9.68,2.62,14.55,0.46,3.05.7,6.14,1,9.21a79.81,79.81,0,0,1,.34,12.29,40.32,40.32,0,0,1-1.83,10.86,18.6,18.6,0,0,1-4.08,7A4.91,4.91,0,0,1,68,452.86c-1.19,0-2.37.12-3.56,0.18-3.62.18-7.24,0.38-10.86,0.53s-7.13.27-10.69,0.39c-3,.1-6.06.19-9.09,0.25a38.4,38.4,0,0,0-12.43,2.06C13.76,459,8.8,464.21,6.7,472a36.73,36.73,0,0,0-.58,14.86,61.84,61.84,0,0,0,3.42,12.9,26.91,26.91,0,0,0,2.77,5.57,13.81,13.81,0,0,0,9.33,6.31,29.77,29.77,0,0,0,4.43.4,46.33,46.33,0,0,0,11.28-1.51c5-1.13,10.05-2.43,15.08-3.63a69,69,0,0,1,14.79-2.13,33.52,33.52,0,0,1,12.93,2.09,27.15,27.15,0,0,1,7.2,4.22A4.29,4.29,0,0,1,89,513.81c0.16,0.94.43,1.85,0.59,2.79,0.71,4.28,1.5,8.55,2.08,12.85,1.28,9.49,2.39,19,2.84,28.56,0.28,6,.46,12,0.39,18-0.07,7.2-.46,14.37-1.25,21.53-0.05.45,0,.92-0.07,1.47,0.69,0,1.28.09,1.86,0.07,3.5-.15,7-0.32,10.51-0.47l10.69-.47,11.4-.48c3.44-.15,6.89-0.31,10.33-0.44,1.48-.06,3-0.12,4.45-0.06a82,82,0,0,0,17.59-.85,51.06,51.06,0,0,0,7.62-1.83,26.81,26.81,0,0,0,8.77-4.64,14.92,14.92,0,0,0,5.39-9.37c0.35-2.21.45-4.38-.77-6.4a132.82,132.82,0,0,1-8.23-26.32,59.31,59.31,0,0,1-1.1-12.94,27.81,27.81,0,0,1,1.66-8.9,17,17,0,0,1,7.28-9c0.81-.49,1.69-0.86,2.53-1.3A62.35,62.35,0,0,1,198.92,510,49.84,49.84,0,0,1,215,508.83a39,39,0,0,1,15.12,4.72L230.54,485C179.41,486.86,136.15,486.67,132.91,484.11Z"/>
        <path class="cls-1" d="M265.62,483.39l7,21.71,47.56-5.31c0-.6-0.1-1.21-0.15-1.81a91,91,0,0,1-.05-12.47,49.06,49.06,0,0,1,.69-5.83C303.13,481.15,284.33,482.39,265.62,483.39Z"/>
        <path class="cls-2" d="M265.62,483.39c-5.07.27-10.14,0.52-15.17,0.75l10.36,31.6,14,6.44,21.48,1.23,4.27,10.65,14.28,6.59,9-10.89q-1.16-7.1-2.2-14.21c-0.34-2.35-.54-4.72-0.75-7.09-0.26-2.89-.49-5.78-0.72-8.67l-47.56,5.31Z"/>
        <path class="cls-2" d="M306.71,549.48l-6.19-15.43-25.75-11.88-29.9-1.71,0.81-24L246,484.34c-5.21.23-10.37,0.44-15.45,0.63l-0.39,28.59a41.88,41.88,0,0,1,9.9,7.66,5.4,5.4,0,0,1,1.47,2.8c0.07,0.35.14,0.7,0.19,1.05q1.2,7.87,1.77,15.81l32.13,30.86Z"/>
        <polygon class="cls-2" points="296.25 523.4 274.76 522.17 300.52 534.05 296.25 523.4"/>
        <path class="cls-3" d="M293.7,334.8c-5.94.13-9.37-2.25-11-7.27l-9,0a8.58,8.58,0,0,1-7.37-4.14c-3.63-.26-7.25-0.5-10.88-0.66-5.94-.27-11.87-0.6-17.82-0.3a48.64,48.64,0,0,0-9.51,1.36,21.82,21.82,0,0,0-6.09,2.48,12.6,12.6,0,0,0-5.84,7.78,23.3,23.3,0,0,0-.68,5.83,55.3,55.3,0,0,0,1.66,12.49c1,4,2.12,8.86,3.2,12.87l79.14-5.46c-0.07-1.36-.18-3.44-0.2-4.73-0.08-4.94-.1-10.3.19-15.22,0.07-1.15.15-2.52,0.24-3.66C297.82,334.7,295.95,333.55,293.7,334.8Z"/>
        <path class="cls-3" d="M323.74,471.2a9.71,9.71,0,0,1,4.51-3.63,10.73,10.73,0,0,1,4.21-.6q5.7,0.17,11.4.41c7.42,0.32,14.84.78,22.27,0.55a47.6,47.6,0,0,0,12-1.65,15.38,15.38,0,0,0,11.16-11,36.55,36.55,0,0,0,1.37-8.24,73.43,73.43,0,0,0-.79-15.29,31.71,31.71,0,0,0-3.08-10,14.65,14.65,0,0,0-9.52-7.76,24.66,24.66,0,0,0-6.17-.82,61.93,61.93,0,0,0-11.88,1c-6,1.11-12.05,2.14-18.08,3.18-1.93.33-3.87,0.64-5.82,0.86s-3.67.32-5.51,0.41a52.22,52.22,0,0,1-8.65-.29c0.3,7.74,0,13.43-1.3,14.69-5.1,4.86-119.4,12.13-122.9,8.48-1.42-1.48-2.55-14.24-3.39-28.91l-1,.21a46.55,46.55,0,0,1-14.9.61,29.47,29.47,0,0,1-25.75-24.28,52.69,52.69,0,0,1-.38-13.16c0.41-4.67.94-9.34,1.45-14a95.25,95.25,0,0,0,.76-11.55,21.52,21.52,0,0,0-1-6.84,8.46,8.46,0,0,0-5.45-5.49,18.35,18.35,0,0,0-4.35-.89,38.25,38.25,0,0,0-10.65.63c-3.87.73-7.72,1.6-11.57,2.45,3.07,63.87,7.67,140.18,12.25,143.8,3.25,2.56,46.5,2.75,97.64.85l34.71-2.72,0.37,1.14c18.71-1,37.51-2.23,55-3.71a31,31,0,0,1,1-4A16.68,16.68,0,0,1,323.74,471.2Z"/>
        <path class="cls-3" d="M246,484.34l4.45-.2Z"/>
        <path class="cls-3" d="M220.55,365.32a114.23,114.23,0,0,1,3,12.77,40.77,40.77,0,0,1,.55,10.8,21.88,21.88,0,0,1-2.9,9.18,20.8,20.8,0,0,1-8.66,8,75.28,75.28,0,0,1-19,6.64c0.84,14.66,2,27.41,3.39,28.89,3.5,3.65,117.8-3.63,122.9-8.49,1.32-1.26,1.6-6.95,1.3-14.69-0.44-.05-0.87-0.09-1.31-0.16a4.62,4.62,0,0,1-3.28-1.91c-0.31-.43-0.66-0.84-1-1.28a63.16,63.16,0,0,1-5.68-9.88A103.63,103.63,0,0,1,301,374.78c-0.74-5.26-1.23-9.55-1.48-15l-79.14,5.46C220.42,365.26,220.47,365,220.55,365.32Z"/>
        <path class="cls-3" d="M282.05,324.74c-5.24-.5-10.48-0.95-15.73-1.32a8.58,8.58,0,0,0,7.37,4.14l9,0a19.19,19.19,0,0,1-.55-2.11C282.13,325.18,282.09,325,282.05,324.74Z"/>
        <path d="M285.86,327.52h-3.14c1.61,5,5,7.39,11,7.27,2.25-1.25,4.1-.31,6,1.17,0.14-1.78.27-3.55,0.41-5.33l-6.79.74C289.52,331.78,287.22,330.52,285.86,327.52Z"/>
        <path class="cls-4" d="M300.35,327.47l-14.5.05c1.36,3,3.66,4.26,7.47,3.86l6.79-.74c0.06-.75.13-1.5,0.18-2.25A5.21,5.21,0,0,0,300.35,327.47Z"/>
        <path class="cls-2" d="M300.35,327.47a1.16,1.16,0,0,0-.28-0.67c-0.47-.08-1-0.19-1.51-0.25-3.48-.42-7-0.88-10.44-1.22L285,325a13.91,13.91,0,0,0,.84,2.49Z"/>
      </g>
    </g>
    <g>
      <path class="cls-1" d="M200.1,309.25l21.21,1.12a38.18,38.18,0,0,1,12.31-3.91,65.2,65.2,0,0,1,8.53-.68,81.54,81.54,0,0,1,13.31.91c1.86,0.28,3.72.57,5.59,0.82l2.61,0.35,3.69-56.33-10.89-.61,1-18.7c-1.28,0-2.56-.09-3.83-0.15a36.62,36.62,0,0,1-9.58-1.71A21.35,21.35,0,0,1,230,217.13c-0.77-2-1.33-4.12-1.91-6.21a40.58,40.58,0,0,1-.48-20.34,91.3,91.3,0,0,1,4-11.82,18.13,18.13,0,0,1,1.24-2.44,21.34,21.34,0,0,1,12.14-10,35.62,35.62,0,0,1,11.49-1.57,78.79,78.79,0,0,1,11.6.91c6.49,1,13,2.09,19.44,3.14l7.27,1.17a2.49,2.49,0,0,0,1.94-.44,4,4,0,0,0,1.58-1.75c0.47-1.16,1-2.31,1.37-3.5a53.54,53.54,0,0,0,1.95-10.08c0.71-6,.83-12,1-17.95,0.05-2.4-.06-4.79-0.12-7.19-0.1-4-.16-8-0.36-12-0.22-4.39-.54-8.78-0.87-13.16-0.29-3.81-.65-7.62-1-11.43q-0.44-4.95-.91-9.89a6.83,6.83,0,0,0-.23-1c-2.8.48-5.5,0.93-8.2,1.4-9.17,1.61-18.34,3.14-27.61,4.11a169.44,169.44,0,0,1-17.61,1A95.82,95.82,0,0,1,230.38,87a58.23,58.23,0,0,1-10-2.38A23.5,23.5,0,0,1,206.73,73.1,29.92,29.92,0,0,1,203.66,63a64.09,64.09,0,0,1-.47-11.1c0.21-4.57.63-9.11,1-13.66a36.35,36.35,0,0,0-.51-11.59A20.32,20.32,0,0,0,192,12.13a25.58,25.58,0,0,0-10-2.22,35.05,35.05,0,0,0-13.73,2.46,39.67,39.67,0,0,0-7.75,4,13.14,13.14,0,0,0-5.83,8.16,26.54,26.54,0,0,0-.63,4.74,52.5,52.5,0,0,0,1.08,11.57c0.78,4.5,1.66,9,2.38,13.49a46.17,46.17,0,0,1,.55,12.11,22.93,22.93,0,0,1-3.13,9.7,13.47,13.47,0,0,1-6.64,5.7,38.74,38.74,0,0,1-4.21,1.43,68,68,0,0,1-14.05,2c-3.59.2-7.19,0.22-10.79,0.26-2,0-4-.09-6-0.11-5.54,0-11.07-.42-16.59-0.87-5.06-.42-10.11-1-15.17-1.55s-9.85-1.3-14.74-2.2c-0.37-.07-0.74-0.1-1.18-0.16-0.07.39-.14,0.67-0.18,0.94C64.77,86.27,64,91,63.49,95.66c-0.59,5-1.05,10-1.52,15q-0.93,9.9-1,19.84a148.61,148.61,0,0,0,.78,19,61.48,61.48,0,0,0,2.34,11.74,25.12,25.12,0,0,0,2.48,5.63,10.28,10.28,0,0,0,3.15,3.34,2.68,2.68,0,0,0,2.11.37c3.58-.71,7.17-1.4,10.77-2A120.46,120.46,0,0,1,103,166.94a58.6,58.6,0,0,1,12.58,1.37,26.27,26.27,0,0,1,9.41,4,15,15,0,0,1,6,7.88c0.36,1.14.75,2.28,1.07,3.43a64.64,64.64,0,0,1,2.65,22.84A38.06,38.06,0,0,1,133.7,213a28.18,28.18,0,0,1-16.63,19.66,9.22,9.22,0,0,1-3.14.78c-1.82.12-3.64,0.3-5.47,0.42-5,.31-10,0.54-15.06.37-4.06-.13-8.1-0.3-12.13-0.76a79.5,79.5,0,0,1-13.6-2.63c-0.54-.16-1.08-0.28-1.66-0.43a7.94,7.94,0,0,0-1.17,2.88,37.3,37.3,0,0,0-1,6.77,78.34,78.34,0,0,0-.15,9.92c0.3,5.13.48,10.26,0.7,15.4q0.35,8.13.69,16.26,0.27,6.5.53,13,0.31,7.62.64,15.23c0.09,2,.23,4.09.35,6.21a8.8,8.8,0,0,0,1.08-.16c1.21-.34,2.4-0.72,3.61-1.07a42.7,42.7,0,0,1,4.12-1.14c5.22-1,10.46-1.83,15.69-2.73,6.53-1.13,13-2.27,19.58-3.37a36.75,36.75,0,0,1,6.27-.84c2.61,0,5.21,0,7.82,0,0.83-34.42,1.71-60.64,1.71-60.64Z"/>
      <path class="cls-3" d="M142,308.58a35.5,35.5,0,0,1,11.67,4.77A19.38,19.38,0,0,1,162,324.27a21,21,0,0,1-.25,12,20.89,20.89,0,0,0-.6,2.66c-0.33,2.14-.65,4.29-0.88,6.45-0.43,4-.83,8-1.17,11.93-0.22,2.62-.27,5.25-0.46,7.87-0.23,3.25-.2,6.5-0.11,9.76a2.6,2.6,0,0,0,.78,1.83,33.84,33.84,0,0,0,14.17,9c5.3,1.72,10.69,3.23,16.15,2.87,0.41-15.5,1-28.11,1-28.11h21.75a146.46,146.46,0,0,0-3-18.77,34.76,34.76,0,0,1-.94-7.27,29,29,0,0,1,3.81-15.67,20.29,20.29,0,0,1,6.35-6.74c0.88-.57,1.78-1.15,2.7-1.63l-21.21-1.15-73.66-63.13s-0.87,26.21-1.71,60.64c0.88,0,1.75,0,2.63,0A68.22,68.22,0,0,1,142,308.58Z"/>
      <path class="cls-3" d="M203.6,384.82a10.3,10.3,0,0,0,6.25-5.23,23.56,23.56,0,0,0,2.36-7.83,47.41,47.41,0,0,0,.25-11.46c0-.27-0.06.2-0.08,0.2H190.64s-0.61,12.6-1,28.11c1.22-.08,2.44-0.7,3.66-0.86C196.8,387.28,200.21,385.87,203.6,384.82Z"/>
      <path class="cls-3" d="M283.63,310.57c3.78,0.51,7.55,1,11.33,1.52a43.93,43.93,0,0,0,6.41-2.2c0.3-1.4.61-2.79,0.89-4.19a182.42,182.42,0,0,0,2.83-19.49c0.39-4.38.51-8.78,0.52-13.18A112.62,112.62,0,0,0,304,253.6l-36.67-2.06-3.69,56.33,8.59,1.16Z"/>
      <path class="cls-5" d="M267.36,251.54l1.29-19.66c-2.76.14-5.52,0.32-8.28,0.38-0.95,0-1.89,0-2.84,0l-1,18.7Z"/>
      <path class="cls-3" d="M303.79,252.08A73.48,73.48,0,0,0,299,236c-0.53-1.2-1.13-2.36-1.67-3.49a33.06,33.06,0,0,0-7-1.13,71.16,71.16,0,0,0-8.72-.17c-4,.28-8.1.41-12.15,0.61l-0.78,0-1.29,19.66L304,253.6C303.94,253.09,303.88,252.58,303.79,252.08Z"/>
    </g>
    <g>
      <path d="M311.89,330.73a271,271,0,0,1,90.76-3.14l-0.41-3.52c-2.57-.19-5.14-0.37-7.72-0.57a54.38,54.38,0,0,1-8.1,1.23,112.45,112.45,0,0,1-17.63,0c-4.27-.32-8.55-0.55-12.81-1-2.07-.24-4.13-0.51-6.19-0.78l-12.6.42c-9.39,1.42-18.79,2.69-28.2,4-0.09,1.71-.16,3.42-0.24,5.13,0.79,0.58,1.6,1.25,2.44,1.89,7.07,5.38,15.3,7.3,23.61,8.56,19.72,3,39.22,2.11,58-5.23,3.64-1.42,6.91-3.95,10.25-6.32l-0.35-3C385.61,344.39,327.51,346,311.89,330.73Z"/>
      <path d="M337.56,323.29l-0.37.05,12.6-.42-4.51-.61C342.71,322.59,340.13,322.9,337.56,323.29Z"/>
      <path class="cls-4" d="M400.94,321.23a22.25,22.25,0,0,1-4.41,1.75c-0.66.19-1.33,0.36-2,.52,2.57,0.21,5.14.38,7.72,0.57l-0.34-2.87Z"/>
      <path class="cls-4" d="M310.26,325.32c0,0.72-.1,1.42-0.13,2.14,9.4-1.3,17.68-2.7,27.07-4.12l-26,.73C311.27,324.38,310.27,325,310.26,325.32Z"/>
      <path class="cls-4" d="M318.23,303.82a4,4,0,0,0-1.36,5.28Q317.58,306.47,318.23,303.82Z"/>
      <path class="cls-4" d="M345.28,322.32c-2.26-.32-4.52-0.64-6.77-1q-10.32-1.64-20.53-3.88a17.7,17.7,0,0,1-3.2-.81c0.3-1.09.58-2.13,0.88-3.16,0.42-1.45.82-2.9,1.21-4.36,0,0-6.2,14.91-6.17,15.13l26.49-.88,0.37-.05C340.13,322.9,342.71,322.59,345.28,322.32Z"/>
      <path class="cls-4" d="M400.94,321.23l1,0-0.06-.49-0.72.43Z"/>
      <path class="cls-4" d="M403.51,327.69l-0.86-.11,0.1,0.82C403,328.16,403.28,327.93,403.51,327.69Z"/>
      <path class="cls-4" d="M311.89,330.73c15.62,15.31,73.72,13.66,90.86-2.33l-0.1-.82A271,271,0,0,0,311.89,330.73Z"/>
      <path class="cls-1" d="M571,192c-0.22.05-.45,0.07-0.67,0.14a4,4,0,0,1-2.2,0c-0.66-.17-1.32-0.36-2-0.59a17.59,17.59,0,0,1-9.36-8.14c-0.32-.54-0.61-1.1-0.94-1.63a17.89,17.89,0,0,1-2.43-6.54c-0.23-1.29-.41-2.59-0.62-3.88a71.82,71.82,0,0,1-.92-9.37,138.47,138.47,0,0,1,.3-14.55c0.08-1.14.23-2.27,0.34-3.41,0.19-1.93.32-3.87,0.59-5.79,0.65-4.52,1.31-9,2.08-13.54,0.68-4,1.41-8,2.29-11.94,1.24-5.63,2.64-11.22,4-16.83,0.17-.71.33-1.42,0.52-2.23-1.84-.38-3.56-0.75-5.28-1.09l-11.43-2.26L534,88.06l-11.76-2.33c-3.19-.63-6.34-1.44-9.57-1.89a61.81,61.81,0,0,0-14.86-.48A29.62,29.62,0,0,0,488,85.85a15.84,15.84,0,0,0-7.53,7,18.24,18.24,0,0,0-1.87,5.67,20.94,20.94,0,0,0-.19,7.33,127.23,127.23,0,0,1,2.08,16.81,74.43,74.43,0,0,1-.9,17.92A31.32,31.32,0,0,1,475.87,151a17.45,17.45,0,0,1-11.51,8.5l-1,.23a59.2,59.2,0,0,1-23.78,1.14,44.43,44.43,0,0,1-16-5.75,41.75,41.75,0,0,1-11.74-10.63,4.5,4.5,0,0,1-1-3c0.08-2.11,0-4.23.16-6.33,0.14-2.33.36-4.67,0.65-7,0.52-4.25,1-8.5,1.69-12.73,0.57-3.72,1.29-7.42,2-11.12A34.92,34.92,0,0,1,417,97.84a12.27,12.27,0,0,0,.83-3.83,11,11,0,0,0-3.27-8.71,20.29,20.29,0,0,0-6.06-4.11,52.29,52.29,0,0,0-15.69-4c-2.94-.36-5.92-0.53-8.88-0.71a30.21,30.21,0,0,0-4.79-.07c-5.51.53-11,1.17-16.51,1.77l-17,1.86c-2,.22-4.1.36-6.12,0.74-2.74.51-5.46,1.22-8.18,1.86a4,4,0,0,0-.86.44c0.46,3.83.9,7.58,1.37,11.31,1.32,10.37,2.48,20.74,2.86,31.2,0.17,4.85.13,9.7-.11,14.55-0.06,1.31-.25,2.61-0.37,3.92-0.33,3.63-.48,10.05-0.48,10.05l9.68-32.69L359.56,152l32-14.26-13.11,29.82L426.25,166c6.11-.2,11,4.88,11.23,11L438,191.61l9.37-.4,2.18,51.15-9.85.42,0.41,12.35a42.14,42.14,0,0,1,11.19,1.93,28.1,28.1,0,0,1,17.24,14.68,23.15,23.15,0,0,1,2.58,10.72,66.78,66.78,0,0,1-1.2,11.4c-1,5.16-2.1,10.29-3.12,15.45a51.15,51.15,0,0,0-1.09,8,28.15,28.15,0,0,0,.43,7,4.38,4.38,0,0,0,3.54,3.72c0.45,0.1.88,0.27,1.33,0.33q3,0.37,6,.69c3,0.32,5.93.19,8.9,0.24s5.71,0,8.56.06,5.71,0,8.56,0c3.08,0,6.17.06,9.25,0.08l14.56,0c4.91,0,9.82.07,14.73,0.11l6.34,0a2.22,2.22,0,0,0,1.53-.31,3.63,3.63,0,0,0,.09-0.62c-0.06-5.14-.14-10.27-0.2-15.41q-0.11-9.33-.2-18.67-0.1-10.62-.19-21.24c0-1.94,0-3.88-.07-5.82A54.22,54.22,0,0,1,552,247.69a25.08,25.08,0,0,1,4.13-7.46,15.9,15.9,0,0,1,5.27-4.3,5,5,0,0,1,4.45-.12A135,135,0,0,0,589.69,243c3.07,0.68,6.15,1.28,9.24,1.84,2.64,0.48,5.3.84,7.95,1.27a3.86,3.86,0,0,0,2.17-.25,22.1,22.1,0,0,0,10.79-9.14A30.35,30.35,0,0,0,623.77,225a62.28,62.28,0,0,0-1.65-23.61,12,12,0,0,0-4.56-6.85,20.53,20.53,0,0,0-5.4-2.91,42,42,0,0,0-8.49-2,43.53,43.53,0,0,0-10.42.17c-4.77.47-9.54,1.08-14.34,1.12A36,36,0,0,0,571,192Z"/>
      <path class="cls-5" d="M270,198.78l-0.54-16.23c-0.11-3.19.4-4.83,2-7-6.35,1.62-10.88,4-14,10.1a34.57,34.57,0,0,0-3.4,12.49,49.25,49.25,0,0,0,.1,9.75,26.94,26.94,0,0,0,1.8,7.81,10.51,10.51,0,0,0,3.15,4.48l-0.55-20.95Z"/>
      <path class="cls-3" d="M371.14,246.75L369,195.6l70-3L438.48,178c-0.2-6.11-5.12-11.19-11.23-11l-47.77,1.59,13.11-29.82-32,14.26-16.17-30.63-9.27,33.68-1.76-.32c-0.15.58-.28,1.15-0.45,1.72a39.75,39.75,0,0,1-5.11,11.35A20.15,20.15,0,0,1,316.93,177a27.49,27.49,0,0,1-8.27,1.21A68.75,68.75,0,0,1,296.57,177c-4.22-.74-8.42-1.55-12.65-2.24a27,27,0,0,0-9,0c-0.73.13-1.42,0.3-2.11,0.47a13,13,0,0,0-2.33,8.32L271,199.78l68-2.9,1.23,28.73,30-1.28-30,1.28,1,22.42-15.19.65a60.19,60.19,0,0,1,0,8.61c-0.31,4.5-.76,9-1.09,13.49a194,194,0,0,1-3.19,22.89c-0.41,2.12-.87,4.24-1.34,6.35a67.52,67.52,0,0,0,10.06-11,77.81,77.81,0,0,1,5.65-6.72s67,20.32,68.39,20.93c-0.07-1-.13-2-0.18-3.07a106.27,106.27,0,0,1,.36-17.1,51.65,51.65,0,0,1,2.59-11.85,24.06,24.06,0,0,1,4-7.31,15.6,15.6,0,0,1,8.19-5.31,72.24,72.24,0,0,1,19.81-2.53l1.8,0.06-0.41-12.35Z"/>
      <polygon class="cls-1" points="449.51 242.37 447.33 191.21 437.96 191.61 439.67 242.79 449.51 242.37"/>
      <path class="cls-3" d="M370.14,245.75l69.53-3L438,191.61l-70,3Zm9.21-33.92c2.71-5.35,7.73-7.88,12.83-6.44,5.34,1.5,8.94,6.72,9.33,13.61,0.14,2.45,0,2.21-.47,5.63-1.11,1.77-1.86,3.22-2.81,4.43a10.81,10.81,0,0,1-17.23.17A17.06,17.06,0,0,1,379.35,211.84Z"/>
      <path d="M398.23,229.07c0.95-1.22,1.7-2.66,2.81-4.43,0.49-3.42.61-3.18,0.47-5.63-0.39-6.89-4-12.11-9.33-13.61-5.09-1.43-10.12,1.09-12.83,6.44a17.06,17.06,0,0,0,1.65,17.4A10.81,10.81,0,0,0,398.23,229.07Zm-11-17.24c1.16-.09,2.45,1.83,3.68,2.86-0.91,1.56-1.58,3.86-2.83,4.44-0.89.42-2.55-1.45-4.83-2.93C385.15,214,386.15,211.91,387.28,211.83Z"/>
      <path class="cls-5" d="M270.83,224.08L270,198.78l-11.37.49,0.91,21.34a12.64,12.64,0,0,0,4.42,2.38A26.53,26.53,0,0,0,270.83,224.08Z"/>
      <path class="cls-3" d="M273.94,224.1c4.86-.12,9.67-0.74,14.51-1.17a93.77,93.77,0,0,1,11.46-.5,34,34,0,0,1,8.79,1.28c0.61,0.18,1.19.4,1.77,0.63-0.08-.54-0.15-1.09-0.18-1.65-0.47-7.76,4.69-14.63,11.3-15.06,6.43-.42,12.07,5.9,12.42,13.92,0.34,7.7-4.54,14.18-11,14.57-0.17,0-.34,0-0.5,0a33,33,0,0,1,2.17,8.54c0.13,1,.23,2,0.3,3l15.19-.65-1-22.42h0L338,195.88l-68,2.9,0.84,25.29C271.86,224.12,272.9,224.12,273.94,224.1Z"/>
      <path class="cls-6" d="M322.5,236.06l0,0.06c0.17,0,.33,0,0.5,0,6.44-.39,11.32-6.87,11-14.57-0.35-8-6-14.35-12.42-13.92-6.61.43-11.76,7.3-11.3,15.06,0,0.56.1,1.11,0.18,1.65A20.56,20.56,0,0,1,322.5,236.06Zm0.93-21.68c1.19,0.07,2.31,2.12,3.47,3.3-1,1.45-1.89,3.64-3.18,4.08-0.92.31-2.42-1.74-4.57-3.47C321.14,216.35,322.31,214.31,323.42,214.38Z"/>
      <path d="M377.27,322l-27.48.91c2.06,0.27,4.13.54,6.19,0.78,4.25,0.49,8.54.72,12.81,1a112.45,112.45,0,0,0,17.63,0,54.38,54.38,0,0,0,8.1-1.23q-8.53-.68-17.06-1.47h-0.19Z"/>
      <path d="M330.44,291.19c1.55-2.14,3.23-4.2,5-6.19l-0.35-3.71a77.81,77.81,0,0,0-5.65,6.72,67.52,67.52,0,0,1-10.06,11q-0.54,2.41-1.13,4.81A57.53,57.53,0,0,0,330.44,291.19Z"/>
      <path d="M403.7,305.43c-0.09-1.07-.18-2.13-0.24-3.2q-2.09-.92-4.08-2l0.44,3.64A40.61,40.61,0,0,0,403.7,305.43Z"/>
      <path d="M342.4,277.78c9.46-8.84,17.63-9,27.42-.51a142,142,0,0,1,14.28,14.28,47.76,47.76,0,0,0,15.72,12.29l-0.44-3.64a63,63,0,0,1-17-14.6,87.75,87.75,0,0,0-15.19-13.71c-7.62-5.59-15.78-5.34-23,.76a108.18,108.18,0,0,0-9.16,8.65l0.35,3.71C337.64,282.47,340,280,342.4,277.78Z"/>
      <path d="M345.28,322.32l4.51,0.61,27.48-.91A163,163,0,0,0,345.28,322.32Z"/>
      <path class="cls-4" d="M400.94,321.23l-23.67.79h0.19q8.53,0.78,17.06,1.47c0.67-.16,1.34-0.32,2-0.52A22.25,22.25,0,0,0,400.94,321.23Z"/>
      <path class="cls-4" d="M337.6,308.14L335.42,285c-1.74,2-3.42,4-5,6.19a57.53,57.53,0,0,1-12.21,12.63q-0.65,2.65-1.36,5.28Z"/>
      <path class="cls-4" d="M316.87,309.1c-0.39,1.46-.79,2.91-1.21,4.36-0.3,1-.58,2.08-0.88,3.16a17.7,17.7,0,0,0,3.2.81q10.21,2.25,20.53,3.88c2.25,0.36,4.51.68,6.77,1a163,163,0,0,1,32-.3l23.67-.79,0.18-.09,0.72-.43c-0.69-5.81,1.47-10.25.81-15.66-5.92-2.79-13.91-8.15-18.55-13.5a142,142,0,0,0-14.28-14.28c-9.8-8.48-18-8.33-27.42.51-2.42,2.26-4.76,4.68-7,7.22l2.18,23.14Z"/>
      <path class="cls-7" d="M323.71,221.76c1.29-.44,2.14-2.64,3.18-4.08-1.15-1.18-2.28-3.23-3.47-3.3s-2.28,2-4.28,3.91C321.3,220,322.8,222.07,323.71,221.76Z"/>
      <path class="cls-7" d="M388.13,219.13c1.24-.58,1.91-2.88,2.83-4.44-1.23-1-2.52-3-3.68-2.86s-2.13,2.22-4,4.37C385.58,217.68,387.24,219.55,388.13,219.13Z"/>
      <line class="cls-8" x1="320.36" y1="300.01" x2="310.33" y2="328.08"/>
      <line class="cls-8" x1="300.52" y1="328.62" x2="299.65" y2="337.1"/>
      <line class="cls-8" x1="404.46" y1="303.23" x2="401.61" y2="331.15"/>
    </g>
  </g>
  <rect id="_Slice_" data-name="&lt;Slice&gt;" class="cls-9" width="636" height="611"/>
</svg>
