<svg id="Layer_1" data-name="Layer 1" xmlns="http://www.w3.org/2000/svg" viewBox="0 0 864 452">
  <defs>
    <style>
      .cls-1, .cls-4 {
        fill: #ffa900;
      }

      .cls-1, .cls-2, .cls-3 {
        stroke: #000;
        stroke-miterlimit: 10;
      }

      .cls-1 {
        stroke-width: 0.75px;
      }

      .cls-2 {
        fill: #ff3;
      }

      .cls-3, .cls-7 {
        fill: none;
      }

      .cls-3 {
        stroke-width: 3px;
      }

      .cls-5 {
        fill: #fff;
      }

      .cls-6 {
        fill: #834499;
      }
    </style>
  </defs>
  <title>dxster_mockup</title>
  <g>
    <g>
      <g>
        <polygon class="cls-1" points="717.06 392.9 720.6 407.3 752.43 405.95 757 418.5 745.11 431 712.9 413.36 702.79 373.42 712.86 373.33 717.06 392.9"/>
        <polygon class="cls-1" points="704.39 400.85 702.87 415.59 734.41 419.59 739.75 436.11 719.64 448.5 693.37 419.53 697.51 369.51 707.15 372 704.39 400.85"/>
        <path class="cls-2" d="M803.76,257.7s3.7,126.89,0,130.27c-11.21,10.27-163.71,4.65-168.34.45s0-142.82,0-142.82l47.36,40.58,81.73,4.3,0.15-31.68Z"/>
        <path class="cls-2" d="M752.8,317.84s3.35,44.3,0,47.08-74.1,2.4-76.1,0,0-47.08,0-47.08"/>
        <g>
          <path class="cls-2" d="M735.33,198.92L759,200.47l-8.5-14.27L772,192.32l8.06-21,8.4,20.62,21.39-7.1-10.28,18.25,30.67,2a7.16,7.16,0,0,1,6.49,7.74l-5.5,83.88c-0.26,3.92-3.56,7.65-7.48,7.4l-94.92-6.22c-3.92-.26-5.73-4.32-5.47-8.25l5.5-83.88C729.12,201.89,731.41,198.67,735.33,198.92Z"/>
          <path d="M808.32,243.74a7,7,0,0,1-11-1,11,11,0,0,1,0-11.24c2.07-3.25,5.45-4.55,8.62-3.31,3.32,1.3,5.3,4.87,5.11,9.3a12.42,12.42,0,0,1-.66,3.57C809.58,242.14,809,243,808.32,243.74Zm-5.83-7c0.83-.3,1.41-1.72,2.09-2.66-0.72-.74-1.42-2-2.17-2.07s-1.5,1.29-2.82,2.55C801,235.65,801.9,237,802.49,236.74Z"/>
          <path d="M759.75,243.49c-4.28-.16-7.5-4.3-7.3-9.4s3.93-9.06,8.18-8.92,7.35,4.54,7.07,9.7C767.43,239.81,763.9,243.64,759.75,243.49Zm1.35-9.15c0.85-.2,1.54-1.55,2.29-2.41-0.66-.83-1.26-2.21-2-2.33s-1.58,1.12-3,2.23C759.67,233.07,760.5,234.48,761.11,234.34Z"/>
          <g>
            <rect class="cls-3" x="790.17" y="221.17" width="51.09" height="32.92" transform="translate(1616.83 520.59) rotate(-176.79)"/>
            <rect class="cls-3" x="719.91" y="217.23" width="51.09" height="32.92" transform="translate(1476.65 508.78) rotate(-176.79)"/>
            <line class="cls-3" x1="790.1" y1="238.23" x2="770.85" y2="237.15"/>
          </g>
          <g>
            <g>
              <path d="M734.16,297c-0.54-4.17.37-5.78,4.24-7.36a19.48,19.48,0,0,1,3.6-1.2c7.36-1.41,13.27-5.52,18.55-11.33A60.19,60.19,0,0,1,771,268.2c5-3.44,10.23-3.09,14.76,1a56.43,56.43,0,0,1,8.85,9.73c4.68,6.78,10.24,11.92,17.77,14.29a15,15,0,0,1,2.68,1.32c4.15,2.3,5,5,2.91,9.68-1.32,3-3.87,4.14-7.56,3.59a5.3,5.3,0,0,0-2.94.38c-3.19,1.52-6.18,3.81-9.48,4.73-12.51,3.5-25,2.84-37.47-.33-5.24-1.34-10.38-3.08-14.56-7-1.67-1.56-3-3.3-5.09-2.34C736.72,303.05,734.69,301,734.16,297Zm29.37,3.2a106,106,0,0,1,25.61,1.72q11.05,2.13,22.15,4c3.65,0.61,6.29-2.38,5.79-6.48a3.43,3.43,0,0,0-1.45-2.21,42.79,42.79,0,0,0-6.75-3.46,28.85,28.85,0,0,1-13.57-10.93,91.28,91.28,0,0,0-8.23-10c-5.73-6-11-6.47-17.58-1.41a60.57,60.57,0,0,0-8.5,7.82c-5,5.58-10.63,9.4-17.6,10.8-1.4.28-2.74,0.92-4.12,1.32-2.52.73-3.86,2.27-3.39,5.35s1.88,4.57,4.89,4.47C748.36,300.82,756,300.58,763.53,300.18Zm-16.9,3.13c9.16,10.95,47.44,13.5,58.82,3.86A174.34,174.34,0,0,0,746.63,303.31Z"/>
              <path class="cls-4" d="M740.78,301.12c7.58-.31,15.17-0.55,22.75-0.94a106,106,0,0,1,25.61,1.72q11.05,2.13,22.15,4c3.65,0.61,6.29-2.38,5.79-6.48a3.43,3.43,0,0,0-1.45-2.21,42.79,42.79,0,0,0-6.75-3.46,28.85,28.85,0,0,1-13.57-10.93,91.28,91.28,0,0,0-8.23-10c-5.73-6-11-6.47-17.58-1.41a60.57,60.57,0,0,0-8.5,7.82c-5,5.58-10.63,9.4-17.6,10.8-1.4.28-2.74,0.92-4.12,1.32-2.52.73-3.86,2.27-3.39,5.35S737.78,301.23,740.78,301.12Z"/>
            </g>
            <path class="cls-4" d="M805.45,307.18a174.34,174.34,0,0,0-58.82-3.86C755.79,314.26,794.07,316.81,805.45,307.18Z"/>
          </g>
          <path class="cls-5" d="M758.4,231.83c1.27,1.24,2.1,2.65,2.71,2.51,0.85-.2,1.54-1.55,2.29-2.41-0.66-.83-1.26-2.21-2-2.33S759.8,230.71,758.4,231.83Z"/>
          <path class="cls-5" d="M799.59,234.56c1.37,1.09,2.31,2.39,2.91,2.18,0.83-.3,1.41-1.72,2.09-2.66-0.72-.74-1.42-2-2.17-2.07S800.9,233.3,799.59,234.56Z"/>
        </g>
      </g>
      <g>
        <circle class="cls-5" cx="788.22" cy="88.26" r="73.64"/>
        <path class="cls-6" d="M785,100V93.35a14,14,0,0,1,1.28-6.62,26.86,26.86,0,0,1,3.67-5.5,57.86,57.86,0,0,1,4.88-4.95,58.26,58.26,0,0,0,4.92-4.95,27.43,27.43,0,0,0,3.78-5.5,14.08,14.08,0,0,0,1.53-6.62,18.54,18.54,0,0,0-.92-5.9,13.36,13.36,0,0,0-2.75-4.78,12.85,12.85,0,0,0-4.65-3.21,17.06,17.06,0,0,0-6.62-1.18,14.49,14.49,0,0,0-6.39,1.41,14.68,14.68,0,0,0-5,4,19.31,19.31,0,0,0-3.37,5.89A24.14,24.14,0,0,0,773.88,63h-8.12a36.19,36.19,0,0,1,2.1-10.54A25.68,25.68,0,0,1,773,44.24a22.24,22.24,0,0,1,7.57-5.32,23.75,23.75,0,0,1,9.6-1.87A27.53,27.53,0,0,1,800.94,39a20.16,20.16,0,0,1,7.24,5,19.48,19.48,0,0,1,4.06,7.08,26.44,26.44,0,0,1,1.28,8.16,16.85,16.85,0,0,1-1.38,6.95,27.73,27.73,0,0,1-3.47,5.77,59.2,59.2,0,0,1-4.52,5.14q-2.42,2.46-4.52,5a26.46,26.46,0,0,0-3.36,5.41A14.3,14.3,0,0,0,795,93.81V100H785Zm10,14v10H785V114h10Z"/>
        <path class="cls-6" d="M823.72,110l1.11-3.66a9.44,9.44,0,0,1,2.28-3.95,18.43,18.43,0,0,1,3.51-2.79,39.41,39.41,0,0,1,4.14-2.21,39.37,39.37,0,0,0,4.14-2.21,18.45,18.45,0,0,0,3.51-2.79,9.44,9.44,0,0,0,2.28-3.95,12.43,12.43,0,0,0,.56-4,9,9,0,0,0-.83-3.61,8.61,8.61,0,0,0-2.36-3,11.43,11.43,0,0,0-4-2,9.72,9.72,0,0,0-4.37-.34,9.85,9.85,0,0,0-4,1.57,13.7,13.7,0,0,0-3.35,3.25,17.73,17.73,0,0,0-2.47,4.72l-5.21-1.58A21.58,21.58,0,0,1,822.08,77a17.55,17.55,0,0,1,4.9-4.34,15,15,0,0,1,5.9-2,15.93,15.93,0,0,1,6.53.65A18.46,18.46,0,0,1,846,74.7a13.51,13.51,0,0,1,3.67,4.63,13.05,13.05,0,0,1,1.23,5.33,17.72,17.72,0,0,1-.77,5.48,11.29,11.29,0,0,1-2.24,4.19,18.59,18.59,0,0,1-3.35,3,39.69,39.69,0,0,1-3.9,2.42q-2,1.1-3.88,2.33a18.12,18.12,0,0,0-3.28,2.79,9.62,9.62,0,0,0-2.12,3.79l-1,3.36Zm4,10.71-2,6.73-6.6-2,2-6.73Z"/>
        <path class="cls-6" d="M751.5,114.47l-2-3.27a9.44,9.44,0,0,1-1.42-4.33,18.43,18.43,0,0,1,.27-4.48,39.41,39.41,0,0,1,1.12-4.56,39.37,39.37,0,0,0,1.12-4.56,18.45,18.45,0,0,0,.27-4.48,9.44,9.44,0,0,0-1.41-4.33,12.43,12.43,0,0,0-2.57-3.06,9,9,0,0,0-3.24-1.79,8.61,8.61,0,0,0-3.78-.23A11.43,11.43,0,0,0,735.66,81a9.72,9.72,0,0,0-3.18,3,9.85,9.85,0,0,0-1.5,4,13.7,13.7,0,0,0,.18,4.67,17.73,17.73,0,0,0,1.86,5l-4.66,2.82a21.58,21.58,0,0,1-2.53-6.89,17.55,17.55,0,0,1,0-6.55,15,15,0,0,1,2.48-5.71A15.93,15.93,0,0,1,733.2,77a18.46,18.46,0,0,1,6.86-2.66,13.51,13.51,0,0,1,5.89.36,13.05,13.05,0,0,1,4.79,2.65,17.72,17.72,0,0,1,3.57,4.24A11.29,11.29,0,0,1,755.93,86a18.59,18.59,0,0,1,0,4.51,39.69,39.69,0,0,1-.81,4.52q-0.54,2.25-.85,4.45a18.12,18.12,0,0,0-.11,4.31,9.62,9.62,0,0,0,1.41,4.1l1.82,3Zm10.61,4.21,3.64,6-5.9,3.57-3.64-6Z"/>
      </g>
    </g>
    <g>
      <g>
        <polygon class="cls-1" points="351.96 403.02 354.98 415.31 382.15 414.16 386.06 424.87 375.9 435.54 348.41 420.48 339.78 386.39 348.38 386.32 351.96 403.02"/>
        <polygon class="cls-1" points="341.15 409.81 339.85 422.39 366.77 425.8 371.33 439.9 354.16 450.48 331.74 425.75 335.27 383.06 343.5 385.18 341.15 409.81"/>
        <path class="cls-2" d="M426,287.61s3.16,108.31,0,111.2c-9.57,8.76-139.74,4-143.69.39s0-121.91,0-121.91l40.43,34.64,69.76,3.67,0.13-27Z"/>
        <path class="cls-2" d="M382.47,338.95s2.86,37.82,0,40.19-63.25,2-65,0,0-40.19,0-40.19"/>
        <g>
          <path class="cls-2" d="M367.55,237.44l20.21,1.32-7.26-12.18,18.35,5.21,6.88-17.89,7.17,17.6,18.26-6.06L422.4,241l26.18,1.72a6.11,6.11,0,0,1,5.54,6.61L449.42,321c-0.22,3.35-3,6.53-6.38,6.31L362,322c-3.35-.22-4.89-3.69-4.67-7l4.69-71.6C362.26,240,364.21,237.22,367.55,237.44Z"/>
          <path d="M429.86,275.69a5.93,5.93,0,0,1-9.42-.84,9.37,9.37,0,0,1,0-9.59c1.77-2.78,4.65-3.88,7.36-2.83s4.52,4.16,4.36,7.94a10.6,10.6,0,0,1-.56,3C430.93,274.33,430.45,275.08,429.86,275.69Zm-5-6c0.71-.25,1.2-1.47,1.78-2.27-0.62-.63-1.22-1.75-1.86-1.76s-1.28,1.1-2.41,2.17C423.57,268.79,424.38,269.9,424.88,269.72Z"/>
          <path d="M388.4,275.48c-3.66-.14-6.4-3.67-6.23-8s3.35-7.73,7-7.61,6.27,3.88,6,8.28C395,272.34,391.94,275.62,388.4,275.48Zm1.15-7.81c0.73-.17,1.31-1.32,2-2.06-0.57-.71-1.07-1.89-1.72-2s-1.35,1-2.55,1.91C388.33,266.59,389,267.79,389.56,267.67Z"/>
          <g>
            <rect class="cls-3" x="414.37" y="256.43" width="43.61" height="28.1" transform="translate(856.5 564.98) rotate(-176.79)"/>
            <rect class="cls-3" x="354.4" y="253.07" width="43.61" height="28.1" transform="translate(736.84 554.89) rotate(-176.79)"/>
            <line class="cls-3" x1="414.3" y1="270.99" x2="397.87" y2="270.07"/>
          </g>
          <g>
            <g>
              <path d="M366.56,321.14c-0.46-3.56.31-4.94,3.62-6.28a16.63,16.63,0,0,1,3.08-1c6.28-1.2,11.33-4.71,15.83-9.67a51.38,51.38,0,0,1,8.92-7.6c4.27-2.94,8.74-2.64,12.6.83a48.17,48.17,0,0,1,7.56,8.31c4,5.79,8.74,10.18,15.17,12.2a12.84,12.84,0,0,1,2.29,1.13c3.54,2,4.23,4.29,2.48,8.26-1.12,2.55-3.31,3.53-6.45,3.07a4.53,4.53,0,0,0-2.51.32c-2.72,1.29-5.27,3.25-8.09,4-10.68,3-21.38,2.42-32-.28-4.47-1.14-8.86-2.63-12.43-6-1.43-1.33-2.6-2.82-4.35-2C368.74,326.32,367,324.59,366.56,321.14Zm25.07,2.74a90.45,90.45,0,0,1,21.86,1.47q9.44,1.82,18.91,3.41c3.11,0.52,5.37-2,4.94-5.53a2.93,2.93,0,0,0-1.24-1.88,36.52,36.52,0,0,0-5.76-3,24.63,24.63,0,0,1-11.58-9.33,77.92,77.92,0,0,0-7-8.57c-4.89-5.16-9.36-5.52-15-1.2a51.7,51.7,0,0,0-7.26,6.68c-4.23,4.76-9.08,8-15,9.22-1.19.24-2.34,0.78-3.52,1.12-2.15.62-3.29,1.94-2.89,4.56s1.61,3.9,4.17,3.81C378.68,324.42,385.16,324.21,391.63,323.88Zm-14.43,2.67c7.82,9.35,40.49,11.52,50.21,3.3A148.81,148.81,0,0,0,377.2,326.55Z"/>
              <path class="cls-4" d="M372.21,324.68c6.47-.26,12.95-0.47,19.42-0.8a90.45,90.45,0,0,1,21.86,1.47q9.44,1.82,18.91,3.41c3.11,0.52,5.37-2,4.94-5.53a2.93,2.93,0,0,0-1.24-1.88,36.52,36.52,0,0,0-5.76-3,24.63,24.63,0,0,1-11.58-9.33,77.92,77.92,0,0,0-7-8.57c-4.89-5.16-9.36-5.52-15-1.2a51.7,51.7,0,0,0-7.26,6.68c-4.23,4.76-9.08,8-15,9.22-1.19.24-2.34,0.78-3.52,1.12-2.15.62-3.29,1.94-2.89,4.56S369.64,324.77,372.21,324.68Z"/>
            </g>
            <path class="cls-4" d="M427.41,329.85a148.81,148.81,0,0,0-50.21-3.3C385,335.9,417.69,338.07,427.41,329.85Z"/>
          </g>
          <path class="cls-5" d="M387.25,265.53c1.08,1.06,1.79,2.26,2.31,2.14,0.73-.17,1.31-1.32,2-2.06-0.57-.71-1.07-1.89-1.72-2S388.45,264.58,387.25,265.53Z"/>
          <path class="cls-5" d="M422.4,267.86c1.17,0.93,2,2,2.48,1.86,0.71-.25,1.2-1.47,1.78-2.27-0.62-.63-1.22-1.75-1.86-1.76S423.53,266.78,422.4,267.86Z"/>
        </g>
      </g>
      <g>
        <circle class="cls-5" cx="412.7" cy="142.98" r="62.86"/>
        <path class="cls-6" d="M409,151v-3.67a12.18,12.18,0,0,1,1.57-5.65,24.13,24.13,0,0,1,3.37-4.7,51.12,51.12,0,0,1,4.29-4.22,50.59,50.59,0,0,0,4.26-4.22,23.56,23.56,0,0,0,3.26-4.7,12,12,0,0,0,1.32-5.65,15.83,15.83,0,0,0-.78-5,11.4,11.4,0,0,0-2.35-4.08,11,11,0,0,0-4-2.74,14.55,14.55,0,0,0-5.65-1,12.37,12.37,0,0,0-5.45,1.2,12.53,12.53,0,0,0-4.28,3.38,15.38,15.38,0,0,0-2.88,4.82c-0.73,2-1.15,6.27-1.26,6.27h-6.94a22.45,22.45,0,0,1,1.79-8.79,21.42,21.42,0,0,1,4.36-6.91,18.85,18.85,0,0,1,6.46-4.49,20.27,20.27,0,0,1,8.19-1.57,23.49,23.49,0,0,1,9.23,1.65,17.22,17.22,0,0,1,6.18,4.29,16.64,16.64,0,0,1,3.47,6,22.58,22.58,0,0,1,1.09,7,14.38,14.38,0,0,1-1.17,5.93,23.68,23.68,0,0,1-3,4.92,50.54,50.54,0,0,1-3.86,4.39q-2.07,2.1-3.86,4.28c-1.19,1.45-1.33,3-2.11,4.61s-0.32,3.42-.32,5.4V151H409Zm11,14v6H409v-6h11Z"/>
        <path class="cls-6" d="M443,161.58l0.95-3.12a8.05,8.05,0,0,1,1.94-3.37,15.73,15.73,0,0,1,3-2.38,33.64,33.64,0,0,1,3.53-1.89,33.61,33.61,0,0,0,3.53-1.89,15.75,15.75,0,0,0,3-2.38,8.06,8.06,0,0,0,1.94-3.37,10.61,10.61,0,0,0,.48-3.38,7.65,7.65,0,0,0-.71-3.08,7.35,7.35,0,0,0-2-2.53,9.76,9.76,0,0,0-3.43-1.75,8.29,8.29,0,0,0-3.73-.29,8.4,8.4,0,0,0-3.4,1.34,11.69,11.69,0,0,0-2.86,2.78,15.13,15.13,0,0,0-2.11,4l-4.45-1.35a18.42,18.42,0,0,1,2.94-5.54,15,15,0,0,1,4.18-3.71,12.81,12.81,0,0,1,5-1.68,13.6,13.6,0,0,1,5.57.56,15.76,15.76,0,0,1,5.6,2.84,11.53,11.53,0,0,1,3.13,3.95,11.14,11.14,0,0,1,1,4.55,15.13,15.13,0,0,1-.66,4.68,9.64,9.64,0,0,1-1.91,3.57,15.87,15.87,0,0,1-2.86,2.58,33.88,33.88,0,0,1-3.33,2.06q-1.74.94-3.31,2a15.47,15.47,0,0,0-2.8,2.38,8.21,8.21,0,0,0-1.81,3.23l-0.87,2.87Zm3.38,9.14-1.74,5.74L439,174.75l1.74-5.74Z"/>
        <path class="cls-6" d="M381.36,165.36l-1.69-2.79a8.05,8.05,0,0,1-1.21-3.7,15.73,15.73,0,0,1,.23-3.82,33.64,33.64,0,0,1,1-3.89,33.61,33.61,0,0,0,1-3.89,15.75,15.75,0,0,0,.23-3.82,8.06,8.06,0,0,0-1.21-3.7,10.61,10.61,0,0,0-2.2-2.62,7.65,7.65,0,0,0-2.77-1.53,7.35,7.35,0,0,0-3.23-.19,9.76,9.76,0,0,0-3.59,1.38,8.29,8.29,0,0,0-2.71,2.58,8.4,8.4,0,0,0-1.28,3.43,11.69,11.69,0,0,0,.15,4,15.13,15.13,0,0,0,1.59,4.25l-4,2.41a18.42,18.42,0,0,1-2.16-5.88,15,15,0,0,1,0-5.59,12.81,12.81,0,0,1,2.11-4.87,13.6,13.6,0,0,1,4.14-3.78,15.76,15.76,0,0,1,5.86-2.27,11.53,11.53,0,0,1,5,.31,11.14,11.14,0,0,1,4.09,2.26,15.13,15.13,0,0,1,3,3.62,9.64,9.64,0,0,1,1.39,3.81,15.87,15.87,0,0,1,0,3.85,33.88,33.88,0,0,1-.69,3.86q-0.46,1.92-.73,3.79a15.47,15.47,0,0,0-.1,3.68,8.21,8.21,0,0,0,1.2,3.5l1.55,2.57Zm9.06,3.59,3.11,5.13-5,3L385.38,172Z"/>
      </g>
    </g>
    <g>
      <g>
        <polygon class="cls-1" points="57.82 418.69 59.79 426.71 77.53 425.96 80.08 432.95 73.45 439.92 55.49 430.08 49.86 407.82 55.48 407.78 57.82 418.69"/>
        <polygon class="cls-1" points="50.76 423.12 49.91 431.33 67.49 433.56 70.46 442.76 59.25 449.67 44.61 433.53 46.92 405.65 52.29 407.03 50.76 423.12"/>
        <path class="cls-2" d="M106.13,343.33s2.06,70.72,0,72.61c-6.25,5.72-91.24,2.59-93.82.25s0-79.6,0-79.6l26.4,22.62,45.55,2.4L84.35,344Z"/>
        <path class="cls-2" d="M77.73,376.85s1.87,24.69,0,26.24-41.3,1.34-42.41,0,0-26.24,0-26.24"/>
        <g>
          <path class="cls-2" d="M68,310.58l13.19,0.86-4.74-8,12,3.4,4.49-11.68,4.68,11.49,11.92-4-5.73,10.17L120.9,314a4,4,0,0,1,3.62,4.31l-3.06,46.75c-0.14,2.19-2,4.27-4.17,4.12l-52.9-3.47c-2.19-.14-3.19-2.41-3-4.6l3.06-46.75C64.54,312.23,65.81,310.43,68,310.58Z"/>
          <path d="M108.68,335.55a3.87,3.87,0,0,1-6.15-.55,6.12,6.12,0,0,1,0-6.26,3.92,3.92,0,0,1,4.8-1.84c1.85,0.72,3,2.71,2.85,5.18a6.92,6.92,0,0,1-.37,2C109.38,334.66,109.06,335.15,108.68,335.55Zm-3.25-3.9a4.15,4.15,0,0,0,1.16-1.48c-0.4-.41-0.79-1.14-1.21-1.15s-0.84.72-1.57,1.42C104.57,331,105.1,331.77,105.43,331.65Z"/>
          <path d="M81.61,335.41c-2.39-.09-4.18-2.4-4.07-5.24s2.19-5.05,4.56-5,4.1,2.53,3.94,5.4S83.92,335.5,81.61,335.41Zm0.75-5.1A4,4,0,0,0,83.64,329c-0.37-.46-0.7-1.23-1.12-1.3s-0.88.62-1.66,1.24C81.56,329.61,82,330.39,82.36,330.31Z"/>
          <g>
            <rect class="cls-3" x="98.56" y="322.97" width="28.47" height="18.35" transform="translate(206.81 670.09) rotate(-176.79)"/>
            <rect class="cls-3" x="59.41" y="320.78" width="28.47" height="18.35" transform="translate(128.68 663.51) rotate(-176.79)"/>
            <line class="cls-3" x1="98.52" y1="332.48" x2="87.79" y2="331.88"/>
          </g>
          <g>
            <g>
              <path d="M67.35,365.22c-0.3-2.33.2-3.22,2.36-4.1a10.86,10.86,0,0,1,2-.67c4.1-.79,7.39-3.08,10.34-6.31a33.55,33.55,0,0,1,5.82-5,6.19,6.19,0,0,1,8.22.54,31.45,31.45,0,0,1,4.93,5.43c2.61,3.78,5.71,6.65,9.9,8a8.38,8.38,0,0,1,1.49.73c2.31,1.28,2.76,2.8,1.62,5.4-0.73,1.67-2.16,2.31-4.21,2a3,3,0,0,0-1.64.21c-1.78.84-3.44,2.12-5.28,2.64A39.81,39.81,0,0,1,82,373.91c-2.92-.74-5.79-1.72-8.12-3.89-0.93-.87-1.7-1.84-2.84-1.3C68.77,368.61,67.64,367.48,67.35,365.22ZM83.71,367A59.05,59.05,0,0,1,98,368q6.16,1.19,12.35,2.22c2,0.34,3.5-1.33,3.23-3.61a1.91,1.91,0,0,0-.81-1.23,23.85,23.85,0,0,0-3.76-1.93,16.08,16.08,0,0,1-7.56-6.09,50.87,50.87,0,0,0-4.59-5.6c-3.19-3.37-6.11-3.6-9.8-.79a33.76,33.76,0,0,0-4.74,4.36,17.65,17.65,0,0,1-9.81,6c-0.78.16-1.53,0.51-2.3,0.73a2.36,2.36,0,0,0-1.89,3c0.27,1.77,1,2.55,2.72,2.49C75.26,367.36,79.49,367.23,83.71,367Zm-9.42,1.74c5.1,6.1,26.44,7.52,32.78,2.15A97.16,97.16,0,0,0,74.3,368.75Z"/>
              <path class="cls-4" d="M71,367.53c4.23-.17,8.45-0.31,12.68-0.52A59.05,59.05,0,0,1,98,368q6.16,1.19,12.35,2.22c2,0.34,3.5-1.33,3.23-3.61a1.91,1.91,0,0,0-.81-1.23,23.85,23.85,0,0,0-3.76-1.93,16.08,16.08,0,0,1-7.56-6.09,50.87,50.87,0,0,0-4.59-5.6c-3.19-3.37-6.11-3.6-9.8-.79a33.76,33.76,0,0,0-4.74,4.36,17.65,17.65,0,0,1-9.81,6c-0.78.16-1.53,0.51-2.3,0.73a2.36,2.36,0,0,0-1.89,3C68.58,366.81,69.36,367.6,71,367.53Z"/>
            </g>
            <path class="cls-4" d="M107.08,370.91a97.16,97.16,0,0,0-32.78-2.15C79.4,374.86,100.73,376.28,107.08,370.91Z"/>
          </g>
          <path class="cls-5" d="M80.86,328.91c0.71,0.69,1.17,1.48,1.51,1.4A4,4,0,0,0,83.64,329c-0.37-.46-0.7-1.23-1.12-1.3S81.64,328.29,80.86,328.91Z"/>
          <path class="cls-5" d="M103.81,330.44c0.76,0.61,1.29,1.33,1.62,1.22a4.15,4.15,0,0,0,1.16-1.48c-0.4-.41-0.79-1.14-1.21-1.15S104.54,329.73,103.81,330.44Z"/>
        </g>
      </g>
      <g>
        <circle class="cls-5" cx="97.47" cy="248.9" r="41.04"/>
        <path class="cls-6" d="M97,255v-3.26c0-1.36-.52-2.59.06-3.69A13.55,13.55,0,0,1,98.77,245a30,30,0,0,1,2.56-2.76,31.31,31.31,0,0,0,2.66-2.76,15.08,15.08,0,0,0,2.07-3.07,7.84,7.84,0,0,0,.83-3.69,10.34,10.34,0,0,0-.52-3.29,7.46,7.46,0,0,0-1.54-2.67,7.17,7.17,0,0,0-2.6-1.79,9.51,9.51,0,0,0-3.69-.66,8.08,8.08,0,0,0-3.56.79,8.18,8.18,0,0,0-2.79,2.21,11.25,11.25,0,0,0-1.88,3.37,41,41,0,0,0-.82,4.32H85a14.38,14.38,0,0,1,1.17-6A14.53,14.53,0,0,1,89,224.41a12.46,12.46,0,0,1,4.22-3,13.24,13.24,0,0,1,5.35-1.06,15.35,15.35,0,0,1,6,1.06,11.23,11.23,0,0,1,4,2.79,10.85,10.85,0,0,1,2.26,3.94,14.73,14.73,0,0,1,.71,4.55,9.39,9.39,0,0,1-.77,3.87,15.46,15.46,0,0,1-1.94,3.21,33,33,0,0,1-2.52,2.87q-1.35,1.37-2.52,2.79a18.54,18.54,0,0,0-2.5,3c-0.51,1.06-1.33,2.23-1.33,3.52v3H97Zm4,7v6H95v-6h6Z"/>
        <path class="cls-6" d="M117.26,261l0.62-2a5.26,5.26,0,0,1,1.27-2.2,10.27,10.27,0,0,1,2-1.56,22,22,0,0,1,2.31-1.23,21.94,21.94,0,0,0,2.31-1.23,10.28,10.28,0,0,0,2-1.56,5.26,5.26,0,0,0,1.27-2.2,6.93,6.93,0,0,0,.31-2.21,5,5,0,0,0-.46-2,4.8,4.8,0,0,0-1.31-1.65,6.37,6.37,0,0,0-2.24-1.14,5.41,5.41,0,0,0-2.44-.19,5.49,5.49,0,0,0-2.22.87,7.63,7.63,0,0,0-1.87,1.81,9.88,9.88,0,0,0-1.37,2.63l-2.91-.88a12,12,0,0,1,1.92-3.61,9.78,9.78,0,0,1,2.73-2.42,8.36,8.36,0,0,1,3.29-1.1,8.88,8.88,0,0,1,3.64.36,10.29,10.29,0,0,1,3.66,1.85,7.53,7.53,0,0,1,2,2.58,7.27,7.27,0,0,1,.68,3,9.88,9.88,0,0,1-.43,3.06,6.29,6.29,0,0,1-1.25,2.33,10.36,10.36,0,0,1-1.87,1.68,22.12,22.12,0,0,1-2.18,1.35q-1.13.62-2.16,1.3a10.1,10.1,0,0,0-1.83,1.56,5.36,5.36,0,0,0-1.18,2.11l-0.57,1.87Zm2.2,6-1.14,3.75-3.68-1.12,1.14-3.75Z"/>
        <path class="cls-6" d="M77,263.51l-1.1-1.82a5.26,5.26,0,0,1-.79-2.41,10.27,10.27,0,0,1,.15-2.5,22,22,0,0,1,.62-2.54,21.94,21.94,0,0,0,.62-2.54,10.28,10.28,0,0,0,.15-2.5,5.26,5.26,0,0,0-.79-2.41,6.93,6.93,0,0,0-1.43-1.71,5,5,0,0,0-1.81-1,4.8,4.8,0,0,0-2.11-.13,6.37,6.37,0,0,0-2.34.9,5.41,5.41,0,0,0-1.77,1.69,5.49,5.49,0,0,0-.84,2.24,7.63,7.63,0,0,0,.1,2.6,9.88,9.88,0,0,0,1,2.78l-2.6,1.57a12,12,0,0,1-1.41-3.84,9.78,9.78,0,0,1,0-3.65,8.36,8.36,0,0,1,1.38-3.18,8.88,8.88,0,0,1,2.7-2.47,10.29,10.29,0,0,1,3.82-1.49,7.53,7.53,0,0,1,3.28.2,7.27,7.27,0,0,1,2.67,1.48,9.88,9.88,0,0,1,2,2.36,6.29,6.29,0,0,1,.9,2.49,10.36,10.36,0,0,1,0,2.52,22.12,22.12,0,0,1-.45,2.52q-0.3,1.25-.48,2.48a10.1,10.1,0,0,0-.06,2.4,5.36,5.36,0,0,0,.78,2.29l1,1.68Zm5.91,2.34,2,3.35-3.29,2-2-3.35Z"/>
      </g>
    </g>
  </g>
  <rect id="_Slice_" data-name="&lt;Slice&gt;" class="cls-7" width="864" height="452"/>
</svg>
