<svg id="Layer_1" data-name="Layer 1" xmlns="http://www.w3.org/2000/svg" viewBox="0 0 525.13 318.73">
  <defs>
    <style>
      .cls-1 {
        fill: #e6e6e6;
      }

      .cls-2 {
        fill: #93278f;
      }

      .cls-3 {
        fill: #fff;
      }

      .cls-4 {
        font-size: 41.47px;
        font-family: OCR A Std;
      }
    </style>
  </defs>
  <title>calcIcon</title>
  <g>
    <path class="cls-1" d="M133.45,34.38c105.23,0,98.16-11.81,98.16,38.95,0,59.16,6,47.94-85.62,47.31-8.11-.06-16.23-0.1-24.34,0C25.18,121.89,35,130,35,78.4c0-56.88-8-44,88.76-44h9.74Z" transform="translate(-10.92 -10.14)"/>
    <path class="cls-2" d="M38.66,10.14H227.9c21.9,9.62,28,26.75,27.72,49.9q-1.53,109.45,0,218.93c0.32,23.15-5.81,40.28-27.72,49.9H38.66c-21.9-9.62-28-26.75-27.72-49.9q1.53-109.45,0-218.93C10.61,36.88,16.75,19.76,38.66,10.14Zm94.81,24.32c-27.33,0-54.67.16-82-.08C40.75,34.29,35,38.76,35,49.7q-0.05,28,0,55.91c0,10.24,5.29,15.09,15.46,15.08q82.62,0,165.24,0c10.88,0,15.94-5.23,15.9-16-0.07-17.81.2-35.62-.08-53.42-0.21-13.48-3.65-16.75-17.3-16.82C187.31,34.35,160.39,34.46,133.47,34.46ZM133,182.2c1.65,0,3.31,0,5,0,16.39-.11,20.45-3.93,20.37-19.16-0.07-14.77-4.27-18.48-21-18.57-3.31,0-6.62,0-9.93,0-15.06.21-19.21,4.38-19.13,19.2C108.32,179.31,112.17,182.19,133,182.2ZM60,144.46H57.52c-18.94,0-22.67,3.22-22.57,19.25,0.1,15.39,3.74,18.44,22,18.48h6.19c18.37-.06,22.68-4.71,21.24-22.91C83.43,146.76,79.65,144.46,60,144.46ZM63.7,266.83H61.22c-18.94,0-22.67,3.22-22.57,19.25,0.1,15.39,3.74,18.44,22,18.48h6.19c18.37-.06,22.68-4.71,21.24-22.91C87.14,269.13,83.35,266.84,63.7,266.83Zm69.79,0H131c-18.94,0-22.67,3.22-22.57,19.25,0.1,15.39,3.74,18.44,22,18.48h6.19c18.37-.06,22.68-4.71,21.24-22.91C156.93,269.13,153.15,266.84,133.49,266.83ZM207,182.2c21,0,24.5-2.64,24.63-18.37,0.14-16.53-3.51-19.37-24.93-19.37H203c-17.8.09-21.89,4.43-20.85,22.14C182.9,180,186.46,182.2,207,182.2Zm-4.31,119.16H214.5c18.4-.11,17.75-7.06,17.8-44.31,0.06-37.48-.77-46.19-18.32-46.48-2.47,0-10.93,0-13.41,0-17.21.46-18.43,10.59-17.77,51.51C183.35,296.23,182.41,301.33,202.66,301.36ZM62.93,206H60.46c-18.94,0-22.67,3.22-22.57,19.25,0.1,15.39,3.74,18.44,22,18.48h6.19c18.37-.06,22.68-4.71,21.24-22.91C86.37,208.26,82.59,206,62.93,206Zm69.79,0h-2.48c-18.94,0-22.67,3.22-22.57,19.25,0.1,15.39,3.74,18.44,22,18.48h6.19c18.37-.06,22.68-4.71,21.24-22.91C156.17,208.26,152.38,206,132.73,206Z" transform="translate(-10.92 -10.14)"/>
    <path class="cls-3" d="M133,182.2c-20.8,0-24.65-2.88-24.73-18.53-0.08-14.82,4.07-19,19.13-19.2,3.31,0,6.62,0,9.93,0,16.74,0.09,20.94,3.8,21,18.57,0.07,15.23-4,19.05-20.37,19.16C136.28,182.21,134.63,182.2,133,182.2Z" transform="translate(-10.92 -10.14)"/>
    <path class="cls-3" d="M60,144.46c19.65,0,23.44,2.3,24.43,14.83,1.44,18.19-2.87,22.84-21.24,22.91H57c-18.31,0-21.94-3.09-22-18.48-0.11-16,3.63-19.22,22.57-19.25H60Z" transform="translate(-10.92 -10.14)"/>
    <path class="cls-3" d="M62.93,206c19.65,0,23.44,2.3,24.43,14.83,1.44,18.19-2.87,22.84-21.24,22.91H59.93c-18.31,0-21.94-3.09-22-18.48-0.11-16,3.63-19.22,22.57-19.25h2.48Z" transform="translate(-10.92 -10.14)"/>
    <path class="cls-3" d="M132.73,206c19.65,0,23.44,2.3,24.43,14.83,1.44,18.19-2.87,22.84-21.24,22.91h-6.19c-18.31,0-21.94-3.09-22-18.48-0.11-16,3.63-19.22,22.57-19.25h2.48Z" transform="translate(-10.92 -10.14)"/>
    <path class="cls-3" d="M63.7,266.83c19.65,0,23.44,2.3,24.43,14.83,1.44,18.19-2.87,22.84-21.24,22.91H60.7c-18.31,0-21.94-3.09-22-18.48-0.11-16,3.63-19.22,22.57-19.25H63.7Z" transform="translate(-10.92 -10.14)"/>
    <path class="cls-3" d="M133.49,266.83c19.65,0,23.44,2.3,24.43,14.83,1.44,18.19-2.87,22.84-21.24,22.91h-6.19c-18.31,0-21.94-3.09-22-18.48-0.11-16,3.63-19.22,22.57-19.25h2.48Z" transform="translate(-10.92 -10.14)"/>
    <path class="cls-3" d="M211.62,210.53c20.14,0,20.69,5.54,21.71,35.69,1.47,43.79,2,55-16.81,55.14-2.11,0-13.6,0-15.71,0-18.76-.09-18.07-7.45-18.18-44.5-0.11-38.58,1.73-46.25,21.14-46.34h7.86Z" transform="translate(-10.92 -10.14)"/>
    <path class="cls-3" d="M207,182.2c-20.51,0-24.07-2.23-24.86-15.6-1-17.7,3-22,20.85-22.14h3.71c21.41,0,25.07,2.84,24.93,19.37C231.47,179.56,227.94,182.2,207,182.2Z" transform="translate(-10.92 -10.14)"/>
    <g>
      <path d="M49.71,67.57H48.17c-1.37,0-2.53-.5-2.53-2.07s1.12-2.07,2.41-2.07H55c3.23,0,4.85,1.33,6.26,4.15l3.65,7.3a9.59,9.59,0,0,1,0,9.37l-3.77,7.55c-1.45,2.94-3.32,3.9-6.55,3.9H47.72a2.07,2.07,0,0,1,0-4.15h2v-24Zm4.15,24h0.79c1.74,0,2.16-.21,2.9-1.74l3.65-7.38a5.79,5.79,0,0,0,.79-2.7,7,7,0,0,0-1-3.4l-3.44-7c-0.87-1.78-1.24-1.74-3.15-1.74h-0.5v24Z" transform="translate(-10.92 -10.14)"/>
      <path d="M83,84.53L77,77.31a3.13,3.13,0,0,1-1-1.87,2.07,2.07,0,0,1,2-2.11c1.2,0,2,1.24,2.7,2.11l5.06,6.22,5.06-6.22c0.71-.87,1.49-2.11,2.7-2.11a2.07,2.07,0,0,1,2,2.11,3.13,3.13,0,0,1-1,1.87l-6.1,7.22,6.1,7.22a3.13,3.13,0,0,1,1,1.87,2,2,0,0,1-2,2.07c-1.2,0-2-1.2-2.7-2.07l-5.06-6.22-5.06,6.22c-0.71.87-1.49,2.07-2.7,2.07a2,2,0,0,1-2-2.07,3.13,3.13,0,0,1,1-1.87Z" transform="translate(-10.92 -10.14)"/>
      <path d="M124.39,87.56A5.38,5.38,0,0,1,125.85,91c0,3.11-2.36,4.69-5.23,4.69H111.5a6.12,6.12,0,0,1-4.19-1.33,5.24,5.24,0,0,1-1.95-3.86,2.24,2.24,0,0,1,2.2-2.49,2,2,0,0,1,1.95,2.11c0,1.24.66,1.41,1.82,1.41h9c0.33,0,1.37.12,1.37-.5a3.65,3.65,0,0,0-.75-1.2L106.73,71.55a5,5,0,0,1-1.37-3.4,4.62,4.62,0,0,1,2.2-4,5.55,5.55,0,0,1,3.44-.75h8.79a5.87,5.87,0,0,1,4.11,1.37,5.65,5.65,0,0,1,1.95,3.94,2.12,2.12,0,0,1-2.16,2.41,1.84,1.84,0,0,1-2-1.95c0-1.41-.71-1.62-2-1.62h-8.79c-0.46,0-1.41-.12-1.41.58a2.7,2.7,0,0,0,.62,1.12Z" transform="translate(-10.92 -10.14)"/>
      <path d="M143.72,88.18c0,2.24-.08,3.53,2.65,3.53h2c1.62,0,2.36-.12,2.78-1.74a2,2,0,0,1,2-1.62,2,2,0,0,1,2,2,5.94,5.94,0,0,1-1.37,3.32c-1.45,1.74-3.36,2-5.47,2h-2a6.49,6.49,0,0,1-5.14-2c-1.53-1.7-1.45-3.4-1.45-5.56V77.31h-1.29c-1.16,0-2.74-.25-2.74-2s1.41-2,2.74-2h1.29V69.27c0-1.37.29-2.74,2-2.74s2,1.37,2,2.74v4.06h6.68c1.33,0,2.74.29,2.74,2s-1.58,2-2.74,2h-6.68V88.18Z" transform="translate(-10.92 -10.14)"/>
      <path d="M172.87,95.68c-1.66,0-2.32,0-3.57-1.08l-1.7-1.49a5,5,0,0,1-2-4.48V81c0-2.12.29-3.36,1.95-4.77l1.41-1.2a5.35,5.35,0,0,1,4.4-1.66H177a5.69,5.69,0,0,1,4.4,1.45L183,76.07c1.82,1.45,2.07,3,2.07,5.18v3.19c0,2.28-.37,2.94-2.74,2.94H169.55v1.33a2,2,0,0,0,.58,1.16l1,1.08c0.54,0.58,1.33.75,2.65,0.75h8.54c1.33,0,2.74.29,2.74,2s-1.58,2-2.74,2h-9.46Zm-3.32-12.28h11.53V81a2.23,2.23,0,0,0-.5-1.87L179,77.81a2.83,2.83,0,0,0-1.91-.5h-3.36a3.21,3.21,0,0,0-2,.46l-1.37,1a1.81,1.81,0,0,0-.83,1.82v2.82Z" transform="translate(-10.92 -10.14)"/>
      <path d="M195.43,76.27c0-1.45.17-2.94,2-2.94,1.58,0,2,1.33,2,2.65V77.6L202.52,75a6,6,0,0,1,3.53-1.7h3.19a5.25,5.25,0,0,1,3.9,1.58,5.82,5.82,0,0,1,1.78,4.52c0,1.37-.25,2.78-1.95,2.78-1.45,0-2-1.16-2-2.45a2.61,2.61,0,0,0-.42-1.74c-0.5-.71-1.45-0.71-2.41-0.71H207a3.09,3.09,0,0,0-2,1l-5.56,4.6V92.95c0,1.37-.29,2.74-2,2.74s-2-1.37-2-2.74V76.27Z" transform="translate(-10.92 -10.14)"/>
    </g>
  </g>
  <text class="cls-4" transform="translate(345.98 94.61)">DxSter</text>
</svg>
