<svg id="Layer_1" data-name="Layer 1" xmlns="http://www.w3.org/2000/svg" viewBox="0 0 266.55 339">
  <defs>
    <style>
      .cls-1 {
        fill: #93278f;
      }

      .cls-2 {
        fill: #fff;
      }

      .cls-3 {
        fill: none;
      }
    </style>
  </defs>
  <title>calcIcon</title>
  <g id="PMXcfK.tif">
    <g>
      <path class="cls-1" d="M38.38,8.47H227.62c21.9,9.62,28,26.75,27.72,49.9q-1.53,109.45,0,218.93c0.32,23.15-5.81,40.28-27.72,49.9H38.38c-21.9-9.62-28-26.75-27.72-49.9q1.53-109.45,0-218.93C10.34,35.21,16.47,18.09,38.38,8.47Zm94.81,24.32c-27.33,0-54.67.16-82-.08C40.47,32.62,34.74,37.09,34.72,48q-0.05,28,0,55.91C34.75,114.17,40,119,50.19,119q82.62,0,165.24,0c10.88,0,15.94-5.23,15.9-16-0.07-17.81.2-35.62-.08-53.42-0.21-13.48-3.65-16.75-17.3-16.82C187,32.68,160.11,32.79,133.19,32.79Zm-0.5,147.74c1.65,0,3.31,0,5,0,16.39-.11,20.45-3.93,20.37-19.16-0.07-14.77-4.27-18.48-21-18.57-3.31,0-6.62,0-9.93,0C112,143,107.89,147.18,108,162,108,177.65,111.89,180.53,132.7,180.53Zm-73-37.73H57.24C38.3,142.83,34.57,146,34.67,162c0.1,15.39,3.74,18.44,22,18.48H62.9c18.37-.06,22.68-4.71,21.24-22.91C83.15,145.09,79.37,142.8,59.71,142.79Zm3.71,122.37H60.95c-18.94,0-22.67,3.22-22.57,19.25,0.1,15.39,3.74,18.44,22,18.48h6.19C85,302.84,89.29,298.19,87.85,280,86.86,267.46,83.08,265.17,63.42,265.17Zm69.79,0h-2.48c-18.94,0-22.67,3.22-22.57,19.25,0.1,15.39,3.74,18.44,22,18.48h6.19c18.37-.06,22.68-4.71,21.24-22.91C156.66,267.46,152.87,265.17,133.22,265.17Zm73.48-84.64c21,0,24.5-2.64,24.63-18.37,0.14-16.53-3.51-19.37-24.93-19.37h-3.71c-17.8.09-21.89,4.43-20.85,22.14C182.62,178.3,186.18,180.53,206.7,180.53Zm-4.31,119.16h11.84c18.4-.11,17.75-7.06,17.8-44.31,0.06-37.48-.77-46.19-18.32-46.48-2.47,0-10.93,0-13.41,0-17.21.46-18.43,10.59-17.77,51.51C183.08,294.56,182.13,299.66,202.39,299.69ZM62.66,204.29H60.18c-18.94,0-22.67,3.22-22.57,19.25,0.1,15.39,3.74,18.44,22,18.48h6.19c18.37-.06,22.68-4.71,21.24-22.91C86.09,206.59,82.31,204.29,62.66,204.29Zm69.79,0H130c-18.94,0-22.67,3.22-22.57,19.25,0.1,15.39,3.74,18.44,22,18.48h6.19c18.37-.06,22.68-4.71,21.24-22.91C155.89,206.59,152.1,204.29,132.45,204.29Z"/>
      <path class="cls-2" d="M38.38,8.47c-21.9,9.62-28,26.75-27.72,49.9q1.53,109.45,0,218.93c-0.32,23.15,5.81,40.28,27.72,49.9H8.5V8.47H38.38Z"/>
      <path class="cls-2" d="M227.62,327.19c21.9-9.62,28-26.75,27.72-49.9q-1.53-109.45,0-218.93c0.32-23.15-5.81-40.28-27.72-49.9H257.5V327.19H227.62Z"/>
      <path class="cls-2" d="M132.7,180.53c-20.8,0-24.65-2.88-24.73-18.53-0.08-14.82,4.07-19,19.13-19.2,3.31,0,6.62,0,9.93,0,16.74,0.09,20.94,3.8,21,18.57,0.07,15.23-4,19.05-20.37,19.16C136,180.54,134.35,180.53,132.7,180.53Z"/>
      <path class="cls-2" d="M59.71,142.79c19.65,0,23.44,2.3,24.43,14.83,1.44,18.19-2.87,22.84-21.24,22.91H56.71c-18.31,0-21.94-3.09-22-18.48-0.11-16,3.63-19.22,22.57-19.25h2.48Z"/>
      <path class="cls-2" d="M206.7,180.53c-20.51,0-24.07-2.23-24.86-15.6-1-17.7,3-22,20.85-22.14h3.71c21.41,0,25.07,2.84,24.93,19.37C231.19,177.89,227.66,180.53,206.7,180.53Z"/>
      <g>
        <path d="M49.43,65.9H47.9c-1.37,0-2.53-.5-2.53-2.07s1.12-2.07,2.41-2.07H54.7c3.23,0,4.85,1.33,6.26,4.15l3.65,7.3a9.59,9.59,0,0,1,0,9.37l-3.77,7.55c-1.45,2.94-3.32,3.9-6.55,3.9H47.44a2.07,2.07,0,0,1,0-4.15h2v-24Zm4.15,24h0.79c1.74,0,2.16-.21,2.9-1.74l3.65-7.38a5.79,5.79,0,0,0,.79-2.7,7,7,0,0,0-1-3.4l-3.44-7C56.36,65.85,56,65.9,54.08,65.9h-0.5v24Z"/>
        <path d="M82.77,82.86l-6.1-7.22a3.13,3.13,0,0,1-1-1.87,2.07,2.07,0,0,1,2-2.11c1.2,0,2,1.24,2.7,2.11L85.47,80l5.06-6.22c0.71-.87,1.49-2.11,2.7-2.11a2.07,2.07,0,0,1,2,2.11,3.13,3.13,0,0,1-1,1.87l-6.1,7.22,6.1,7.22a3.13,3.13,0,0,1,1,1.87,2,2,0,0,1-2,2.07c-1.2,0-2-1.2-2.7-2.07l-5.06-6.22-5.06,6.22c-0.71.87-1.49,2.07-2.7,2.07a2,2,0,0,1-2-2.07,3.13,3.13,0,0,1,1-1.87Z"/>
        <path d="M124.12,85.89a5.38,5.38,0,0,1,1.45,3.44c0,3.11-2.36,4.69-5.23,4.69h-9.12A6.12,6.12,0,0,1,107,92.69a5.24,5.24,0,0,1-1.95-3.86,2.24,2.24,0,0,1,2.2-2.49,2,2,0,0,1,1.95,2.11c0,1.24.66,1.41,1.82,1.41h9c0.33,0,1.37.12,1.37-.5a3.65,3.65,0,0,0-.75-1.2L106.45,69.88a5,5,0,0,1-1.37-3.4,4.62,4.62,0,0,1,2.2-4,5.55,5.55,0,0,1,3.44-.75h8.79a5.87,5.87,0,0,1,4.11,1.37,5.65,5.65,0,0,1,1.95,3.94,2.12,2.12,0,0,1-2.16,2.41,1.84,1.84,0,0,1-2-1.95c0-1.41-.71-1.62-2-1.62h-8.79c-0.46,0-1.41-.12-1.41.58a2.7,2.7,0,0,0,.62,1.12Z"/>
        <path d="M143.44,86.51c0,2.24-.08,3.53,2.65,3.53h2c1.62,0,2.36-.12,2.78-1.74a2,2,0,0,1,2-1.62,2,2,0,0,1,2,2A5.94,5.94,0,0,1,153.56,92c-1.45,1.74-3.36,2-5.47,2h-2a6.49,6.49,0,0,1-5.14-2c-1.53-1.7-1.45-3.4-1.45-5.56V75.64h-1.29c-1.16,0-2.74-.25-2.74-2s1.41-2,2.74-2h1.29V67.6c0-1.37.29-2.74,2-2.74s2,1.37,2,2.74v4.06h6.68c1.33,0,2.74.29,2.74,2s-1.58,2-2.74,2h-6.68V86.51Z"/>
        <path d="M172.59,94c-1.66,0-2.32,0-3.57-1.08l-1.7-1.49a5,5,0,0,1-2-4.48V79.29c0-2.12.29-3.36,1.95-4.77l1.41-1.2a5.35,5.35,0,0,1,4.4-1.66h3.65a5.69,5.69,0,0,1,4.4,1.45l1.62,1.29c1.82,1.45,2.07,3,2.07,5.18v3.19c0,2.28-.37,2.94-2.74,2.94H169.27V87a2,2,0,0,0,.58,1.16l1,1.08c0.54,0.58,1.33.75,2.65,0.75H182c1.33,0,2.74.29,2.74,2s-1.58,2-2.74,2h-9.46Zm-3.32-12.28H180.8V79.33a2.23,2.23,0,0,0-.5-1.87l-1.53-1.33a2.83,2.83,0,0,0-1.91-.5h-3.36a3.21,3.21,0,0,0-2,.46l-1.37,1a1.81,1.81,0,0,0-.83,1.82v2.82Z"/>
        <path d="M195.15,74.61c0-1.45.17-2.94,2-2.94,1.58,0,2,1.33,2,2.65v1.62l3.11-2.57a6,6,0,0,1,3.53-1.7H209a5.25,5.25,0,0,1,3.9,1.58,5.82,5.82,0,0,1,1.78,4.52c0,1.37-.25,2.78-1.95,2.78-1.45,0-2-1.16-2-2.45a2.61,2.61,0,0,0-.42-1.74c-0.5-.71-1.45-0.71-2.41-0.71h-1.16a3.09,3.09,0,0,0-2,1l-5.56,4.6V91.28c0,1.37-.29,2.74-2,2.74s-2-1.37-2-2.74V74.61Z"/>
      </g>
    </g>
  </g>
  <rect id="_Slice_" data-name="&lt;Slice&gt;" class="cls-3" x="-11.94" width="293" height="339"/>
</svg>
