<svg id="Layer_1" data-name="Layer 1" xmlns="http://www.w3.org/2000/svg" viewBox="0 0 912.87 223.95">
  <defs>
    <style>
      .cls-1 {
        font-size: 172.34px;
        font-family: Didact Gothic;
      }

      .cls-2 {
        letter-spacing: -2px;
      }

      .cls-3 {
        fill: #834499;
      }
    </style>
  </defs>
  <title>dxcalc</title>
  <g>
    <text class="cls-1" transform="translate(535.02 169.65)"> <tspan class="cls-2" x="38.43" y="0">C</tspan><tspan x="134.77" y="0">alc</tspan></text>
    <g>
      <g>
        <path class="cls-3" d="M288.89,132.57c0,22.37-21.21,38.18-58.62,38.18-7.9,0-17-.58-21.21-2.12a2.28,2.28,0,0,1-1.74-1.93l-2.89-26.23c-0.19-.58,1.93-1.93,2.51-1.93a0.81,0.81,0,0,1,.77.58c3.66,6.55,7.13,13.5,10.8,19.67a11.43,11.43,0,0,0,4.63,4.43c3.08,2.12,7.9,3.09,13.11,3.09,16.58,0,29.12-8.1,29.12-20.63,0-11.57-8.29-18.51-28.15-26-20.44-7.71-30.66-17.16-30.66-31.82,0-20.25,23.91-39,55.92-39,7.9,0,15.62,1,19.09,2.7a1.65,1.65,0,0,1,1.35,1.74l2.31,25.07c0,0.58-1.74,1.74-2.51,1.74a0.65,0.65,0,0,1-.77-0.38c-3.67-6.94-7.33-13.88-11.19-20.63a8,8,0,0,0-3.66-3.47,20.79,20.79,0,0,0-10.42-2.31c-13.69,0-25.45,8.87-25.45,21,0,10.42,7.33,16.2,23.72,24.3,18.12,8.29,33.94,17,33.94,33.75v0.19Z"/>
        <path class="cls-3" d="M341.34,89.77c-1,12.34-1.16,27.77-1.16,40.3,0,24.49,5.79,33.16,19.28,33.16,1.74,0,4.24-.19,6.36-0.38a47.42,47.42,0,0,0,10.22-2.7c0.58-.19.77,0.77,0.77,2.12a1.39,1.39,0,0,1-.77,1.35,82.07,82.07,0,0,1-19.67,6.75c-2.12.19-5,.38-9.26,0.38-21.21,0-34.32-7.71-34.52-35.67a404,404,0,0,1,3.28-45.31l-16.58.58a0.71,0.71,0,0,1-.77-0.77,13,13,0,0,1,.58-3.28C299.69,83.79,301.24,83,303,83h13.69c0.58-3.28,1.54-11,2.7-15.62,1-3.67,2.89-6.17,9.06-8.87,5.4-2.31,13.88-5.78,15-5.78,0.77,0,1.15.58,1,1.73-0.77,6.36-2.31,21.79-2.7,28.92l33.75,0.19a0.48,0.48,0,0,1,.38.58c0,1.35-.77,3.09-1.35,3.09Z"/>
        <path class="cls-3" d="M465.33,118.5a5.79,5.79,0,0,1-3.85,5.4c-7.13,2.31-42,2.31-51.1,1.54a63.94,63.94,0,0,0,1,13.11c3.28,14.46,14.08,23.53,25.26,23.53a61.66,61.66,0,0,0,12.92-1.35,72.68,72.68,0,0,0,14.08-5c0.38-.19,1,1,1,2.31a1.59,1.59,0,0,1-.77,1.16,102.35,102.35,0,0,1-22.17,9.64c-4.24,1.35-8.49,1.92-17,1.92-24.3,0-42.23-11.37-42.23-39.72,0-26,18.89-51.1,46.27-51.1,25.84,0,36.64,22.17,36.64,38.37v0.19ZM425.22,83.79c-7.52,0-15.23,11.38-14.85,38.18,10.8,0.77,21.79-.19,24.87-1.16,1.54-.77,2.7-2.12,2.7-6.17,0-10.42-2.31-31-12.53-31Z"/>
        <path class="cls-3" d="M512.77,126c0.39-2.12.77-3.85,1-5,4.44-18.32,14.46-41.07,32-41.07a10.75,10.75,0,0,1,6.17,1.54,1.76,1.76,0,0,1,.58,1.35l1.35,26.8c0,0.77-1.74,1.73-2.12,1.73a0.54,0.54,0,0,1-.58-0.38c-2.31-4.44-5.4-9.64-7.71-13.3a6.87,6.87,0,0,0-5.4-3.28c-10.61,0-19.67,19.28-24.87,45.51a193.52,193.52,0,0,0-1.93,22.75c0,1.74.77,2.12,2.12,2.31l15,2.12c0.38,0,1,1.35,1,1.93,0,0.38,0,.58-0.38.58-5.4-.19-16.58-0.38-29.69-0.38-11.38,0-21.4.19-23.72,0.38a0.31,0.31,0,0,1-.38-0.38c0-1,.38-2.12,1-2.12l9.64-1.93a2.22,2.22,0,0,0,1.74-2.51c0-5-.38-28.92-0.58-36.64-0.19-8.29-.38-28.15-0.77-33.55,0-1.74-.39-2.9-2.12-3.09l-8.68-.58c-0.77,0-1.15-1.54-1.15-2.31,0-.38,0-0.77.58-0.77l37.41-5.59c1.54-.38,1.93.38,1.93,1.73,0,2.9-1.16,28-1.93,38.57,0,1.74-.19,4.05-0.19,5.59h0.77Z"/>
      </g>
      <path class="cls-3" d="M164,133c0.37,0,.49.13,0.49,0.37a2,2,0,0,1-.62,1.48l-3.57.86c-0.74.25-1.11,0.86-.62,1.48,2.58,4.43,6,9.71,7.75,12.42,0.62,1,1.11,1.85,1.72,3h0.49a21.72,21.72,0,0,1,1.72-2.83,128.25,128.25,0,0,0,7-12.05,1.13,1.13,0,0,0-.86-1.85l-3.94-.86c-0.62-.13-0.74-1-0.74-1.6,0-.24,0-0.37.25-0.37h20.17c0.24,0,.24.13,0.24,0.37a1.58,1.58,0,0,1-.74,1.6l-2.46.61a5.81,5.81,0,0,0-2.58,1.36c-5.9,6-10.33,11.56-14.76,16.36a24.53,24.53,0,0,1-1.72,2v0.37c0.86,1.11,1.48,2,2.34,3.08,5.9,8,11.07,16.36,17,25.46a4.45,4.45,0,0,0,2.34,2.21l3,1.1a1.45,1.45,0,0,1,.62,1.36c0,0.24,0,.37-0.37.37-2.71-.13-6.89-0.25-11.44-0.25-4.92,0-10.09.12-13.65,0.25-0.37,0-.37-0.13-0.37-0.37a1.55,1.55,0,0,1,.74-1.36l3.94-1c1.23-.25,1.6-0.86.86-1.72-3.44-4.8-9.22-11.93-13.28-16.48-0.74-.86-1.35-1.84-2.34-2.83h-0.37c-0.62,1.11-1.23,2-1.72,2.71-3.81,5.66-7.38,11.19-10.09,16-0.62,1.23-.12,1.85.74,2.09l4.31,1.23a1.31,1.31,0,0,1,.74,1.36c0,0.24-.12.37-0.49,0.37-3.32-.13-7.5-0.25-11.81-0.25s-8.24.12-10.21,0.25c-0.37,0-.37-0.13-0.37-0.37a1.31,1.31,0,0,1,.74-1.36l4.55-1.6a7.37,7.37,0,0,0,3-2.21c3.69-3.93,12.3-13.28,16.11-17.83,0.74-.86,1.6-1.85,2.46-2.83v-0.49c-0.74-.74-1.6-1.72-2.34-2.46-4.55-5.53-11.93-15.13-18.57-23a4,4,0,0,0-2-1.48l-2.58-.61c-0.49-.13-0.62-1-0.62-1.6,0-.24,0-0.37.24-0.37H164Z"/>
      <path class="cls-3" d="M38.44,55.06c-0.58,0-1.16-1.35-1.16-2.31,0-.38,0-0.77.58-0.77a471.43,471.43,0,0,1,47.82-2.7c42.23,0,66.72,17.94,66.72,54.38,0,41.65-29.89,65.95-69.8,65.95-5.79,0-18.32-.38-22.75-0.38-7.52,0-15.43.19-20.44,0.38-0.58,0-.58-0.19-0.58-0.58,0-1,.38-2.31,1-2.31L48.27,165c1.35-.19,2.31-0.77,2.31-2.89,0.38-7.52-.19-44.73-0.38-52.83,0-8.49-.58-44.54-0.77-50.52,0-1.93-.38-2.7-1.93-2.89ZM83.75,166.13c16.78,0,38.76-13.69,38.76-61.9,0-30.66-13.5-51.29-38.18-51.29-3.47,0-4.24,1-4.43,3.28C78.54,69.33,76.61,156.87,77,162.65c0,2.12,2.51,3.47,6.56,3.47h0.19Z"/>
    </g>
  </g>
</svg>
